<?xml version="1.0" encoding="utf-8"?>
<!-- Uploaded to: SVG Repo, www.svgrepo.com, Generator: SVG Repo Mixer Tools -->
<svg width="800px" height="800px" viewBox="0 0 1024 1024" class="icon"  version="1.1" xmlns="http://www.w3.org/2000/svg"><path d="M32 388.8h960V992H32z" fill="#FAD97F" /><path d="M496 121.6l-100.8-60.8L496 0z" fill="#F2385A" /><path d="M156.8 584h52.8v48H156.8zM156.8 500.8h52.8V552H156.8zM241.6 584h52.8v48h-52.8zM240 500.8h52.8V552H240z" fill="#FFFFFF" /><path d="M124.8 468.8V664h201.6v-195.2H124.8z m168 83.2H240v-51.2h52.8V552z m-83.2 80H156.8v-48h52.8v48z m0-80H156.8v-51.2h52.8V552z m84.8 80h-52.8v-48h52.8v48z" fill="" /><path d="M443.2 500.8H496V552h-52.8zM443.2 584H496v48h-52.8zM528 500.8h52.8V552H528zM528 584h52.8v48H528z" fill="#FFFFFF" /><path d="M411.2 468.8V664h201.6v-195.2H411.2zM496 584v48h-52.8v-48H496z m-52.8-32v-51.2H496V552h-52.8z m84.8 80v-48h52.8v48H528z m52.8-80H528v-51.2h52.8V552z" fill="" /><path d="M731.2 500.8H784V552h-52.8zM814.4 500.8h52.8V552h-52.8zM814.4 584h52.8v48h-52.8zM729.6 584h52.8v48h-52.8z" fill="#FFFFFF" /><path d="M699.2 468.8V664h201.6v-195.2H699.2z m83.2 163.2h-52.8v-48h52.8v48z m1.6-80h-52.8v-51.2H784V552z m83.2 80h-52.8v-48h52.8v48z m0-80h-52.8v-51.2h52.8V552z" fill="" /><path d="M427.2 808h169.6v184h-169.6z" fill="#FFFFFF" /><path d="M528 356.8V0h-32v356.8H0V1024h1024V356.8H528zM596.8 992h-169.6v-184h169.6v184z m395.2 0H628.8V776H395.2v216H32V388.8h960V992z" fill="" /></svg>