<!DOCTYPE svg PUBLIC "-//W3C//DTD SVG 1.1//EN" "http://www.w3.org/Graphics/SVG/1.1/DTD/svg11.dtd">
<!-- Uploaded to: SVG Repo, www.svgrepo.com, Transformed by: SVG Repo Mixer Tools -->
<svg fill="#696969" height="64px" width="64px" version="1.1" id="XMLID_5_" xmlns="http://www.w3.org/2000/svg" xmlns:xlink="http://www.w3.org/1999/xlink" viewBox="-15.36 -15.36 54.72 54.72" xml:space="preserve" stroke="#696969" stroke-width="0.00024000000000000003">
<g id="SVGRepo_bgCarrier" stroke-width="0">
<path transform="translate(-15.36, -15.36), scale(3.42)" fill="#fef3e1" d="M9.166.33a2.25 2.25 0 00-2.332 0l-5.25 3.182A2.25 2.25 0 00.5 5.436v5.128a2.25 2.25 0 001.084 1.924l5.25 3.182a2.25 2.25 0 002.332 0l5.25-3.182a2.25 2.25 0 001.084-1.924V5.436a2.25 2.25 0 00-1.084-1.924L9.166.33z" strokewidth="0"/>
</g>
<g id="SVGRepo_tracerCarrier" stroke-linecap="round" stroke-linejoin="round"/>
<g id="SVGRepo_iconCarrier"> <g id="social-facebook"> <path id="f" d="M13,23V13h3.4l0.5-4H13V6.6c0-1.1,0.3-1.9,1.9-1.9H17V1.2c-0.4,0-1.6-0.2-3-0.2c-3,0-5,1.8-5,5.2V9H5.6v4H9v10 C9,23,13,23,13,23z"/> </g> </g>
</svg>